<svg width="400" height="400" xmlns="http://www.w3.org/2000/svg">
 <!-- Created with Method Draw - http://github.com/duopixel/Method-Draw/ -->
 <g>
  <title>background</title>
  <rect fill="none" id="canvas_background" height="402" width="402" y="-1" x="-1"/>
  <g display="none" overflow="visible" y="0" x="0" height="100%" width="100%" id="canvasGrid">
   <rect fill="url(#gridpattern)" stroke-width="0" y="0" x="0" height="100%" width="100%"/>
  </g>
 </g>
 <g>
  <title>Layer 1</title>
  <path id="svg_1" d="m354.5,317.5c-8,-45 -36,-96 -68.5,-102.5c-32.5,-6.5 -26.3534,44.3534 -58,35c-52.67247,-13.32753 -38.5,13.5 -68.5,-1.5c-30,-15 -7,-67 -47,-62c-40,5 -41,41 -41.5,40.5c0.5,0.5 -24.5,103.5 15,94c39.5,-9.5 88.5,45.5 120.5,38.5c32,-7 62,-36 87,-21c25,15 69,24 61,-21z" stroke-width="1.5" stroke="#000" fill="none"/>
  <path stroke="#000" id="svg_3" d="m115.92552,126.40504c-59.4097,-13.29023 -55.57682,-39.8707 -58.93059,-59.43688c-3.35377,-19.56618 66.59636,-10.70602 100.1341,-11.44437c33.53774,-0.73835 68.99191,11.81354 114.0283,2.21504c45.03639,-9.5985 80.49057,29.53385 48.86927,44.30078c-31.62129,14.76693 0,45.03913 -27.78841,62.02109c-27.78841,16.98197 -93.90566,26.58047 -99.65499,23.62708c-5.74933,-2.95339 -6.70755,-18.45866 -50.78571,-29.53385c-44.07817,-11.0752 33.53774,-18.45866 -25.87197,-31.74889z" fill-opacity="null" stroke-opacity="null" stroke-width="1.5" fill="none"/>
 </g>
</svg>